<svg width="81" height="96" viewBox="0 0 81 96" fill="none" xmlns="http://www.w3.org/2000/svg">
<path d="M58.4825 1.33954H6.12035C3.29246 1.33954 1 3.62921 1 6.45366V84.8827C1 87.7071 3.29246 89.9968 6.12035 89.9968H58.4825C61.3104 89.9968 63.6029 87.7071 63.6029 84.8827V6.45366C63.6029 3.62921 61.3104 1.33954 58.4825 1.33954Z" fill="white" stroke="black" stroke-width="1.5" stroke-miterlimit="10"/>
<path d="M26.9615 63.1664H11.9461C10.9321 63.1664 10.1101 63.9874 10.1101 65.0002V79.9973C10.1101 81.0101 10.9321 81.8311 11.9461 81.8311H26.9615C27.9755 81.8311 28.7975 81.0101 28.7975 79.9973V65.0002C28.7975 63.9874 27.9755 63.1664 26.9615 63.1664Z" fill="white" stroke="black" stroke-width="1.5" stroke-miterlimit="10"/>
<path d="M51.9933 10.4386H12.6096C11.2291 10.4386 10.1101 11.5563 10.1101 12.935V26.6069C10.1101 27.9856 11.2291 29.1033 12.6096 29.1033H51.9933C53.3737 29.1033 54.4927 27.9856 54.4927 26.6069V12.935C54.4927 11.5563 53.3737 10.4386 51.9933 10.4386Z" fill="#E9EAEA" stroke="black" stroke-width="1.5" stroke-linecap="round" stroke-linejoin="round"/>
<path d="M26.9615 37.5024H11.9461C10.9321 37.5024 10.1101 38.3234 10.1101 39.3362V54.3333C10.1101 55.346 10.9321 56.1671 11.9461 56.1671H26.9615C27.9755 56.1671 28.7975 55.346 28.7975 54.3333V39.3362C28.7975 38.3234 27.9755 37.5024 26.9615 37.5024Z" fill="white" stroke="black" stroke-width="1.5" stroke-miterlimit="10"/>
<path d="M52.4232 37.5024H37.4078C36.3938 37.5024 35.5718 38.3234 35.5718 39.3362V54.3333C35.5718 55.346 36.3938 56.1671 37.4078 56.1671H52.4232C53.4372 56.1671 54.2592 55.346 54.2592 54.3333V39.3362C54.2592 38.3234 53.4372 37.5024 52.4232 37.5024Z" fill="white" stroke="black" stroke-width="1.5" stroke-miterlimit="10"/>
<path d="M15.7164 46.8347H22.7242" stroke="black" stroke-width="1.5" stroke-miterlimit="10"/>
<path d="M41.4116 46.8347H48.4193" stroke="black" stroke-width="1.5" stroke-miterlimit="10"/>
<path d="M19.2202 43.3351V50.3343" stroke="black" stroke-width="1.5" stroke-miterlimit="10"/>
<path d="M52.6567 63.1664H37.6414C36.6274 63.1664 35.8054 63.9874 35.8054 65.0002V79.9973C35.8054 81.0101 36.6274 81.8311 37.6414 81.8311H52.6567C53.6708 81.8311 54.4928 81.0101 54.4928 79.9973V65.0002C54.4928 63.9874 53.6708 63.1664 52.6567 63.1664Z" fill="white" stroke="black" stroke-width="1.5" stroke-miterlimit="10"/>
<path d="M16.7442 70.0256L21.6964 74.9717" stroke="black" stroke-width="1.5" stroke-miterlimit="10"/>
<path d="M21.6964 70.0256L16.7442 74.9717" stroke="black" stroke-width="1.5" stroke-miterlimit="10"/>
<path d="M51.7317 74.1925H79.66V88.9609C79.66 88.9609 77.469 94.4297 65.9715 94.4297C54.4741 94.4297 51.7317 88.9609 51.7317 88.9609V74.1925Z" fill="#F7D264" stroke="black" stroke-width="1.5" stroke-miterlimit="10"/>
<path d="M51.7317 81.8497C51.7317 81.8497 55.5673 86.2265 66.5181 86.2265C77.469 86.2265 79.66 82.279 79.66 82.279" fill="#F7D264"/>
<path d="M51.7317 81.8497C51.7317 81.8497 55.5673 86.2265 66.5181 86.2265C77.4689 86.2265 79.66 82.279 79.66 82.279" stroke="black" stroke-width="1.5" stroke-miterlimit="10"/>
<path d="M51.4561 59.1487H79.3844V73.9172C79.3844 73.9172 77.1933 79.3859 65.6959 79.3859C54.1984 79.3859 51.4561 73.9172 51.4561 73.9172V59.1487Z" fill="#F7D264" stroke="black" stroke-width="1.5" stroke-miterlimit="10"/>
<path d="M51.4561 66.806C51.4561 66.806 55.2916 71.1828 66.2425 71.1828C77.1933 71.1828 79.3844 67.2353 79.3844 67.2353" fill="#F7D264"/>
<path d="M51.4561 66.806C51.4561 66.806 55.2916 71.1828 66.2425 71.1828C77.1933 71.1828 79.3844 67.2353 79.3844 67.2353" stroke="black" stroke-width="1.5" stroke-miterlimit="10"/>
<path d="M65.4202 64.6221C73.1324 64.6221 79.3844 62.0504 79.3844 58.8781C79.3844 55.7057 73.1324 53.134 65.4202 53.134C57.708 53.134 51.4561 55.7057 51.4561 58.8781C51.4561 62.0504 57.708 64.6221 65.4202 64.6221Z" fill="#F7D264" stroke="black" stroke-width="1.5" stroke-miterlimit="10"/>
<path d="M41.6451 70.1656H48.6529" stroke="black" stroke-miterlimit="10"/>
<path d="M41.6451 74.8317H48.6529" stroke="black" stroke-miterlimit="10"/>
</svg>
