<svg width="23" height="23" viewBox="0 0 23 23" fill="none" xmlns="http://www.w3.org/2000/svg">
<g clip-path="url(#clip0_27_96)">
<path d="M19.1734 18.3779H3.8267C3.69302 18.3779 3.58496 18.2699 3.58496 18.1362V4.38588C3.58496 4.25219 3.69302 4.14413 3.8267 4.14413H19.1734C19.3071 4.14413 19.4151 4.25219 19.4151 4.38588V18.1362C19.414 18.2699 19.306 18.3779 19.1734 18.3779Z" stroke="#B6B6B6" stroke-width="1.3" stroke-miterlimit="10"/>
<path d="M3.58496 7.96188H19.414" stroke="#B6B6B6" stroke-width="1.3" stroke-miterlimit="10"/>
<path d="M7.28564 3.02679V5.08104" stroke="#B6B6B6" stroke-width="1.6" stroke-miterlimit="10" stroke-linecap="round"/>
<path d="M15.7144 3.02679V5.08104" stroke="#B6B6B6" stroke-width="1.6" stroke-miterlimit="10" stroke-linecap="round"/>
<path d="M8.70041 12.2074H5.70037C5.68923 12.2074 5.6792 12.1985 5.6792 12.1862V9.97826C5.6792 9.96712 5.68811 9.95709 5.70037 9.95709H8.70041C8.71155 9.95709 8.72158 9.966 8.72158 9.97826V12.1874C8.72158 12.1985 8.71267 12.2074 8.70041 12.2074Z" fill="#B6B6B6"/>
<path d="M8.70041 15.5985H5.70037C5.68923 15.5985 5.6792 15.5896 5.6792 15.5773V13.3682C5.6792 13.3571 5.68811 13.347 5.70037 13.347H8.70041C8.71155 13.347 8.72158 13.356 8.72158 13.3682V15.5773C8.72158 15.5896 8.71267 15.5985 8.70041 15.5985Z" fill="#B6B6B6"/>
<path d="M12.9771 15.5985H9.9771C9.96596 15.5985 9.95593 15.5896 9.95593 15.5773V13.3682C9.95593 13.3571 9.96484 13.347 9.9771 13.347H12.9771C12.9883 13.347 12.9983 13.356 12.9983 13.3682V15.5773C12.9972 15.5896 12.9883 15.5985 12.9771 15.5985Z" fill="#B6B6B6"/>
<path d="M12.9771 12.2074H9.9771C9.96596 12.2074 9.95593 12.1985 9.95593 12.1862V9.97826C9.95593 9.96712 9.96484 9.95709 9.9771 9.95709H12.9771C12.9883 9.95709 12.9983 9.966 12.9983 9.97826V12.1874C12.9972 12.1985 12.9883 12.2074 12.9771 12.2074Z" fill="#B6B6B6"/>
<path d="M17.2995 12.2074H14.2995C14.2883 12.2074 14.2783 12.1985 14.2783 12.1862V9.97826C14.2783 9.96712 14.2872 9.95709 14.2995 9.95709H17.2995C17.3107 9.95709 17.3207 9.966 17.3207 9.97826V12.1874C17.3196 12.1985 17.3107 12.2074 17.2995 12.2074Z" fill="#B6B6B6"/>
</g>
<defs>
<clipPath id="clip0_27_96">
<rect width="23" height="23" fill="white"/>
</clipPath>
</defs>
</svg>
