<svg width="31" height="31" viewBox="0 0 31 31" fill="none" xmlns="http://www.w3.org/2000/svg">
<g clip-path="url(#clip0_28_212)">
<path d="M25.5563 31H5.44369C2.43823 31 0 28.5618 0 25.5563V5.44369C0 2.43823 2.43823 0 5.44369 0H25.5541C28.5618 0 31 2.43823 31 5.44369V25.5541C31 28.5618 28.5618 31 25.5563 31Z" fill="#F7D264"/>
<path d="M19.1681 11.2473C19.1681 13.1781 17.6131 14.7446 15.6964 14.7446C13.7797 14.7446 12.2247 13.1781 12.2247 11.2473C12.2247 9.31643 13.7797 7.75 15.6964 7.75C17.6131 7.75 19.1681 9.31643 19.1681 11.2473ZM21.5303 21.7473C21.7894 21.7473 22 21.5352 22 21.2741V20.3549C22 18.0596 20.1346 16.1805 17.8561 16.1805H13.5367C11.2583 16.1832 9.39282 18.0624 9.39282 20.3576V21.2768C9.39282 21.5379 9.60339 21.75 9.86255 21.75H21.5303V21.7473Z" fill="white"/>
</g>
<defs>
<clipPath id="clip0_28_212">
<rect width="31" height="31" fill="white"/>
</clipPath>
</defs>
</svg>
