<svg width="22" height="22" viewBox="0 0 22 22" fill="none" xmlns="http://www.w3.org/2000/svg">
<rect width="22" height="22" rx="4" fill="#F0F0F0"/>
<g opacity="0.4" clip-path="url(#clip0_11_2)">
<path d="M8.33193 8.50098C8.03746 8.50098 7.79871 8.26541 7.79871 7.97487V6.52611C7.79871 6.23557 8.03746 6 8.33193 6C8.6264 6 8.86516 6.23557 8.86516 6.52611V7.97487C8.86516 8.26541 8.6264 8.50098 8.33193 8.50098Z" fill="#919191"/>
<path d="M11.0021 8.50098C10.7076 8.50098 10.4689 8.26541 10.4689 7.97487V6.52611C10.4689 6.23557 10.7076 6 11.0021 6C11.2966 6 11.5353 6.23557 11.5353 6.52611V7.97487C11.5353 8.26541 11.2966 8.50098 11.0021 8.50098Z" fill="#919191"/>
<path d="M13.6682 8.50098C13.3738 8.50098 13.135 8.26541 13.135 7.97487V6.52611C13.135 6.23557 13.3738 6 13.6682 6C13.9627 6 14.2015 6.23557 14.2015 6.52611V7.97487C14.2015 8.26541 13.9627 8.50098 13.6682 8.50098Z" fill="#919191"/>
<path d="M15.0808 7.18573H6.91922C6.40987 7.18573 6 7.59013 6 8.09268V15.0931C6 15.5956 6.40987 16 6.91922 16H15.0808C15.5901 16 16 15.5956 16 15.0931V8.09268C16 7.59013 15.5901 7.18573 15.0808 7.18573ZM8.90092 11.9207C8.60645 11.9207 8.36769 11.6851 8.36769 11.3946C8.36769 11.1041 8.60645 10.8685 8.90092 10.8685C9.19538 10.8685 9.43414 11.1041 9.43414 11.3946C9.43414 11.6851 9.19538 11.9207 8.90092 11.9207ZM11.0338 11.9207C10.7394 11.9207 10.5006 11.6851 10.5006 11.3946C10.5006 11.1041 10.7394 10.8685 11.0338 10.8685C11.3283 10.8685 11.5671 11.1041 11.5671 11.3946C11.5671 11.6851 11.3283 11.9207 11.0338 11.9207ZM13.1667 11.9207C12.8723 11.9207 12.6335 11.6851 12.6335 11.3946C12.6335 11.1041 12.8723 10.8685 13.1667 10.8685C13.4612 10.8685 13.7 11.1041 13.7 11.3946C13.7 11.6851 13.4612 11.9207 13.1667 11.9207Z" fill="#919191"/>
</g>
<defs>
<clipPath id="clip0_11_2">
<rect width="10" height="10" fill="white" transform="translate(6 6)"/>
</clipPath>
</defs>
</svg>
