<svg width="79" height="87" viewBox="0 0 79 87" fill="none" xmlns="http://www.w3.org/2000/svg">
<path d="M61.79 21H39.5H17.21L1 37C1 37 29.37 69 29.37 70L39.5 73L49.63 70C49.63 69 78 37 78 37L61.79 21Z" fill="#E9EAEA" stroke="black" stroke-width="1.5" stroke-miterlimit="10" stroke-linecap="round" stroke-linejoin="round"/>
<path d="M69.5 73H10.5V3.13C10.5 1.95 11.45 1 12.63 1H67.37C68.55 1 69.5 1.95 69.5 3.13V73Z" fill="white" stroke="black" stroke-width="1.5" stroke-miterlimit="10" stroke-linecap="round" stroke-linejoin="round"/>
<path d="M39.5 66.37L1 37.5V81.46C1 83.69 2.81 85.5 5.04 85.5H38H41H73.96C76.19 85.5 78 83.69 78 81.46V37.5L39.5 66.37Z" fill="white" stroke="black" stroke-width="1.5" stroke-miterlimit="10" stroke-linecap="round" stroke-linejoin="round"/>
<path d="M6.5 80L24.95 57.45" stroke="#E9EAEA" stroke-width="1.5" stroke-miterlimit="10" stroke-linecap="round" stroke-linejoin="round"/>
<path d="M72.5 80L54.05 57.45" stroke="#E9EAEA" stroke-width="1.5" stroke-miterlimit="10" stroke-linecap="round" stroke-linejoin="round"/>
<path d="M23.5 40H57" stroke="black" stroke-width="1.5" stroke-miterlimit="10" stroke-linecap="round" stroke-linejoin="round"/>
<path d="M23.5 49H46" stroke="black" stroke-width="1.5" stroke-miterlimit="10" stroke-linecap="round" stroke-linejoin="round"/>
<path d="M48.5101 22.79V21.51C48.5101 15.34 44.9601 11.5 39.2501 11.5C36.5501 11.5 34.2201 12.4 32.5301 14.09C30.6901 15.94 29.7201 18.58 29.7301 21.73C29.7101 28 33.4501 31.91 39.4801 31.92C44.1201 31.9 47.3801 29.8 48.2901 26.28H43.5501C42.8901 27.56 41.4301 28.32 39.5901 28.34C36.5201 28.32 34.6201 26.3 34.6201 23.07V22.78H48.5101V22.79ZM34.6001 19.89L34.6101 19.59C34.7301 17.01 36.7601 15.08 39.3201 15.08C39.3501 15.08 39.3701 15.08 39.4001 15.08C41.9901 15.08 43.8201 16.93 43.8401 19.6V19.89H34.6001Z" fill="#F7D264"/>
</svg>
