<svg width="56" height="56" viewBox="0 0 56 56" fill="none" xmlns="http://www.w3.org/2000/svg">
<g filter="url(#filter0_d_2_212)">
<path d="M39.6783 42H16.3217C12.8315 42 10 39.1685 10 35.6783V12.3217C10 8.83149 12.8315 6 16.3217 6H39.6757C43.1685 6 46 8.83149 46 12.3217V35.6757C46 39.1685 43.1685 42 39.6783 42Z" fill="white"/>
</g>
<g clip-path="url(#clip0_2_212)">
<path d="M27.7883 17.3871C27.7883 17.3871 26.4467 15.994 25.4629 15.6225C24.4791 15.251 23.227 15.0653 23.4953 14.7866C23.7637 14.508 24.5686 13.4864 25.8207 14.3223C27.0728 15.1581 27.7883 17.3871 27.7883 17.3871Z" fill="#1A9AE7"/>
<path d="M28.0117 18.548C28.0117 18.548 27.2515 16.6441 23.5846 15.994C19.9177 15.3439 20.7226 18.5016 20.7226 18.5016C20.7226 18.5016 24.0318 17.7586 25.3733 18.5016C25.3733 18.5016 22.1536 19.2446 21.2592 21.6593C20.3649 24.074 22.243 27.2317 26.0888 25.8386C29.9345 24.4455 28.7719 20.2662 28.7719 20.2662C28.7719 20.2662 30.2028 20.6377 30.2923 21.0091C30.2923 21.0091 31.0078 18.4087 28.0117 18.548ZM25.4627 24.2597C23.4951 25.0027 23.048 22.7737 23.9423 21.4735C24.8367 20.1733 26.6254 20.2662 26.6254 20.2662C27.2515 21.0091 27.4303 23.5167 25.4627 24.2597Z" fill="#1A9AE7"/>
<path d="M25.1052 29.925C25.6979 29.925 26.1784 29.426 26.1784 28.8105C26.1784 28.195 25.6979 27.696 25.1052 27.696C24.5125 27.696 24.032 28.195 24.032 28.8105C24.032 29.426 24.5125 29.925 25.1052 29.925Z" fill="#1A9AE7"/>
<path d="M20.0073 28.1604L22.0643 28.2533V29.925C22.0643 29.925 21.9749 31.0395 22.9587 31.1323C23.9425 31.2252 28.3249 31.3181 30.203 30.8537C30.1136 31.0395 29.7558 32.5254 29.7558 32.5254C29.7558 32.5254 26.8044 33.0827 24.3897 32.9898C21.9749 32.8969 20.8122 32.6183 20.365 31.3181C19.9179 30.0178 20.0073 28.1604 20.0073 28.1604Z" fill="#1A9AE7"/>
<path d="M28.146 17.2013C28.146 17.2013 28.772 18.2229 29.8453 18.3158C30.9185 18.4087 37.0002 18.3158 37.0002 18.3158V17.2013H28.146Z" fill="#A7D8F8"/>
<path d="M31.0079 20.5448C31.0079 20.5448 31.0079 21.1949 30.9185 21.5664H37.0001V20.5448H31.0079Z" fill="#A7D8F8"/>
<path d="M29.3085 23.7953C29.3085 23.7953 28.8613 24.6312 28.593 24.9098H37V23.7953H29.3085Z" fill="#A7D8F8"/>
<path d="M25.6418 27.0459C25.6418 27.0459 26.6256 27.5103 26.7151 28.1604H37.0002V27.0459H25.6418Z" fill="#A7D8F8"/>
<path d="M31.3656 30.3893L31.0078 31.4109H37V30.3893H31.3656Z" fill="#A7D8F8"/>
</g>
<defs>
<filter id="filter0_d_2_212" x="0" y="0" width="56" height="56" filterUnits="userSpaceOnUse" color-interpolation-filters="sRGB">
<feFlood flood-opacity="0" result="BackgroundImageFix"/>
<feColorMatrix in="SourceAlpha" type="matrix" values="0 0 0 0 0 0 0 0 0 0 0 0 0 0 0 0 0 0 127 0" result="hardAlpha"/>
<feOffset dy="4"/>
<feGaussianBlur stdDeviation="5"/>
<feComposite in2="hardAlpha" operator="out"/>
<feColorMatrix type="matrix" values="0 0 0 0 0 0 0 0 0 0 0 0 0 0 0 0 0 0 0.16 0"/>
<feBlend mode="normal" in2="BackgroundImageFix" result="effect1_dropShadow_2_212"/>
<feBlend mode="normal" in="SourceGraphic" in2="effect1_dropShadow_2_212" result="shape"/>
</filter>
<clipPath id="clip0_2_212">
<rect width="17" height="19" fill="white" transform="translate(20 14)"/>
</clipPath>
</defs>
</svg>
