<svg width="17" height="17" viewBox="0 0 17 17" fill="none" xmlns="http://www.w3.org/2000/svg">
<circle cx="8.5" cy="8.5" r="8.5" fill="#F7D264"/>
<path d="M11.0545 13H6.39967C5.62851 13 5 12.3709 5 11.5966V5.40232C5 4.62911 5.62744 4 6.39967 4H9.80393C10.1042 4 10.3863 4.11722 10.5987 4.33015L12.126 5.86151C12.3384 6.07444 12.4553 6.35727 12.4553 6.65838V11.5977C12.4542 12.3709 11.8267 13 11.0545 13ZM6.39967 4.86032C6.1015 4.86032 5.85804 5.10336 5.85804 5.40232V11.5966C5.85804 11.8956 6.10043 12.1397 6.39967 12.1397H11.0556C11.3538 12.1397 11.5972 11.8966 11.5972 11.5966V6.65731C11.5972 6.58633 11.5693 6.51966 11.52 6.46911L9.99162 4.93775C9.94121 4.8872 9.87472 4.86032 9.80393 4.86032H6.39967Z" fill="white"/>
<path d="M11.6905 7.02615H9.77814C9.54111 7.02615 9.34912 6.83365 9.34912 6.59599V4.59575H10.2072V6.16583H11.6905V7.02615Z" fill="white"/>
</svg>
