<svg width="96" height="18" viewBox="0 0 96 18" fill="none" xmlns="http://www.w3.org/2000/svg">
<path d="M14.7998 18H3.15247C1.41199 18 0 16.5843 0 14.8391V3.16085C0 1.41574 1.41199 0 3.15247 0H14.7985C16.5403 0 17.9523 1.41574 17.9523 3.16085V14.8379C17.9523 16.5843 16.5403 18 14.7998 18Z" fill="#F7D264"/>
<path d="M11.8345 14.2634H6.30876C5.39332 14.2634 4.64722 13.5166 4.64722 12.5975V5.24427C4.64722 4.3264 5.39204 3.57959 6.30876 3.57959H10.3499C10.7064 3.57959 11.0413 3.71874 11.2934 3.9715L13.1064 5.78938C13.3585 6.04214 13.4973 6.37789 13.4973 6.73533V12.5987C13.496 13.5166 12.7512 14.2634 11.8345 14.2634ZM6.30876 4.60087C5.9548 4.60087 5.66578 4.88938 5.66578 5.24427V12.5975C5.66578 12.9524 5.95353 13.2421 6.30876 13.2421H11.8358C12.1897 13.2421 12.4787 12.9536 12.4787 12.5975V6.73406C12.4787 6.6498 12.4456 6.57065 12.3871 6.51065L10.5727 4.69278C10.5129 4.63278 10.434 4.60087 10.3499 4.60087H6.30876Z" fill="white"/>
<path d="M12.5895 7.17191H10.3193C10.038 7.17191 9.81006 6.9434 9.81006 6.66127V4.2868H10.8286V6.15063H12.5895V7.17191Z" fill="white"/>
<path d="M26.7247 14.175C25.7595 13.625 25.0061 12.8626 24.4645 11.8879C23.9229 10.9132 23.6521 9.81323 23.6521 8.5879C23.6521 7.36256 23.9229 6.26255 24.4645 5.28785C25.0061 4.31315 25.7595 3.5508 26.7247 3.00079C27.6898 2.45079 28.7835 2.17578 30.0055 2.17578C31.2276 2.17578 32.3213 2.45079 33.2864 3.00079C34.2516 3.5508 35.005 4.31315 35.5466 5.28785C36.0882 6.26255 36.359 7.36256 36.359 8.5879C36.359 8.9917 36.3312 9.38854 36.2757 9.77842H27.3392C27.4781 10.4886 27.7836 11.0386 28.2557 11.4284C28.7279 11.8183 29.3112 12.0133 30.0055 12.0133C30.5333 12.0133 31.002 11.9262 31.4116 11.7522C31.8213 11.5781 32.1025 11.3449 32.2553 11.0525H35.984C35.7757 11.8322 35.3869 12.518 34.8175 13.1098C34.2481 13.7016 33.5468 14.1646 32.7136 14.4987C31.8803 14.8329 30.9777 15 30.0055 15C28.7823 15 27.6887 14.725 26.7247 14.175ZM32.7332 7.37649C32.5805 6.6385 32.268 6.07805 31.7959 5.69513C31.3237 5.31222 30.7265 5.12076 30.0044 5.12076C29.2822 5.12076 28.692 5.31222 28.2338 5.69513C27.7755 6.07805 27.47 6.6385 27.3172 7.37649H32.7332Z" fill="black"/>
<path d="M44.8978 10.4183C44.3491 10.477 43.7736 10.5064 43.1726 10.5064H38.0747V8.49194H39.0945V5.07449H38.1626V3.0447H45.9966V5.07449H45.0353V8.41789C45.4721 8.3796 45.8553 8.31066 46.1863 8.21364V10.1847C45.8757 10.283 45.4466 10.3609 44.8978 10.4183ZM50.2491 13.1783V15.369H38.9481V11.2507H41.4525V13.1783H50.2491ZM41.4245 8.49194H42.7066V5.07449H41.4245V8.49194ZM47.6569 9.16342H46.5352V7.11832H47.6569V6.18385H46.5352V4.14002H47.6569V2.89917H50.0747V12.157H47.6569V9.16342Z" fill="black"/>
<path d="M60.0937 5.67318H51.5886V3.74552H54.5883V2.67957H57.0927V3.74552H60.0924V5.67318H60.0937ZM53.9122 10.8715C53.3342 10.6774 52.8758 10.3851 52.5359 9.99574C52.1959 9.60637 52.0266 9.13914 52.0266 8.59403C52.0266 8.04893 52.1959 7.58169 52.5359 7.19233C52.8758 6.80297 53.3342 6.51063 53.9122 6.31659C54.4903 6.12254 55.1332 6.02425 55.8424 6.02425C56.5503 6.02425 57.1946 6.12127 57.7713 6.31659C58.3494 6.51191 58.8077 6.80297 59.1477 7.19233C59.4876 7.58169 59.657 8.04893 59.657 8.59403C59.657 9.13914 59.4876 9.60637 59.1477 9.99574C58.8077 10.3851 58.3494 10.6774 57.7713 10.8715C57.1933 11.0668 56.5503 11.1638 55.8424 11.1638C55.132 11.1638 54.489 11.0668 53.9122 10.8715ZM54.9092 13.223H63.5593V15.3689H52.4048V11.5289H54.9092V13.223ZM54.778 8.03105C54.5055 8.18169 54.3706 8.36935 54.3706 8.59276C54.3706 8.81744 54.5068 9.00382 54.778 9.15446C55.0492 9.3051 55.4044 9.38042 55.8411 9.38042C56.2779 9.38042 56.6318 9.3051 56.9043 9.15446C57.1755 9.00382 57.3117 8.81616 57.3117 8.59276C57.3117 8.36935 57.1755 8.18169 56.9043 8.03105C56.6318 7.88042 56.2779 7.8051 55.8411 7.8051C55.4044 7.8051 55.0505 7.88042 54.778 8.03105ZM64.8415 5.79063V8.18552H63.3849V12.2004H60.9238V2.89914H63.3849V5.79063H64.8415Z" fill="black"/>
<path d="M75.9016 8.00938C75.2752 8.80726 74.4107 9.40343 73.3094 9.79789C72.2068 10.1924 70.9374 10.389 69.5012 10.389V8.21364C70.4523 8.20342 71.2926 8.0847 72.0209 7.85619C72.7492 7.62768 73.317 7.30853 73.7245 6.90002C74.1319 6.49151 74.3356 6.00896 74.3356 5.45491V5.17789H69.5012V3.04598H76.8413V5.0464C76.84 6.22343 76.5268 7.21151 75.9016 8.00938ZM81.4707 13.1643V15.369H70.1697V11.003H72.6741V13.1643H81.4707ZM78.8644 9.52853H76.9419V7.33789H78.8644V6.36002H77.4231V4.16938H78.8644V2.89917H81.2962V12.1417H78.8644V9.52853Z" fill="black"/>
<path d="M85.5055 9.68172C84.7874 10.066 84.0006 10.2677 83.1462 10.2881V8.06811C83.6797 8.02981 84.1559 7.87151 84.5735 7.59321C84.9911 7.31619 85.3285 6.95747 85.5857 6.5196C85.8429 6.08172 86.0059 5.61449 86.0733 5.11789H83.3207V3.0447H91.2426V5.11917H88.5625C88.5332 5.48938 88.4606 5.8596 88.3435 6.22853L91.7366 8.40385L90.4417 10.1847L87.3402 8.14087C86.8347 8.783 86.2236 9.29747 85.5055 9.68172ZM83.8159 10.9009H94.9998V15.5145H92.4954V13.0175H83.8159V10.9009ZM94.9998 2.89917V10.463H92.5387V7.60087H90.8937V5.483H92.5387V2.89917H94.9998Z" fill="black"/>
</svg>
