<svg width="73" height="94" viewBox="0 0 73 94" fill="none" xmlns="http://www.w3.org/2000/svg">
<g clip-path="url(#clip0_32_356)">
<path d="M12.2571 12.236V0.796631H72.202V81.7641H60.7429" fill="#E9EAEA"/>
<path d="M12.2571 12.236V0.796631H72.202V81.7641H60.7429" stroke="black" stroke-width="1.5" stroke-miterlimit="10"/>
<path d="M0.797974 75.2638V12.236H60.7429V93.2034H19.8327L0.797974 75.2638Z" fill="white" stroke="black" stroke-width="1.5" stroke-miterlimit="10"/>
<path d="M18.5346 92.3218V75.1682H0.978882L18.5346 92.3218Z" fill="#E9EAEA" stroke="black" stroke-width="1.5" stroke-linecap="round" stroke-linejoin="round"/>
<path d="M31.3025 48.3277C38.354 48.3277 44.0703 42.6212 44.0703 35.5819C44.0703 28.5427 38.354 22.8362 31.3025 22.8362C24.251 22.8362 18.5347 28.5427 18.5347 35.5819C18.5347 42.6212 24.251 48.3277 31.3025 48.3277Z" fill="#F7D264"/>
<path d="M13.2147 57.0904H49.3902" stroke="black" stroke-width="1.5" stroke-miterlimit="10"/>
<path d="M13.2147 66.6497H35.5584" stroke="black" stroke-width="1.5" stroke-miterlimit="10"/>
<path d="M31.3025 29.7401V41.4237" stroke="white" stroke-width="3" stroke-linecap="round" stroke-linejoin="round"/>
<path d="M37.1544 35.5819H25.4506" stroke="white" stroke-width="3" stroke-linecap="round" stroke-linejoin="round"/>
</g>
<defs>
<clipPath id="clip0_32_356">
<rect width="73" height="94" fill="white"/>
</clipPath>
</defs>
</svg>
